<svg width="48" height="48" viewBox="0 0 48 48" fill="none" xmlns="http://www.w3.org/2000/svg">
<g clip-path="url(#clip0_310_141)">
<path d="M23.6203 47.24C36.4043 47.24 46.7679 36.8765 46.7679 24.0924C46.7679 11.3084 36.4043 0.944824 23.6203 0.944824C10.8362 0.944824 0.472656 11.3084 0.472656 24.0924C0.472656 36.8765 10.8362 47.24 23.6203 47.24Z" fill="#20C4CB"/>
<path d="M29.6198 27.9659C28.675 29.0052 27.3523 29.5248 26.7382 29.5248C26.0296 29.5248 25.6517 29.0997 25.5572 28.4383C25.5099 28.2021 25.5572 27.9187 25.6044 27.6825C25.8406 26.218 26.3603 25.2732 26.3603 25.037C26.3603 24.9425 26.313 24.8953 26.2658 24.8953C25.7934 24.8953 24.1872 26.5487 23.951 27.6352L23.7621 28.5328C23.6203 29.1469 23.0535 29.5248 22.6283 29.5248C22.4393 29.5248 22.2976 29.4303 22.2504 29.1941C22.2504 29.0997 22.2504 29.0052 22.2504 28.9107L22.3449 28.4383C21.4945 29.0997 20.5497 29.5248 20.1246 29.5248C19.5105 29.5248 19.1798 29.1941 19.0853 28.7217C18.7074 29.2414 18.1877 29.5248 17.6209 29.5248C16.9123 29.5248 16.2509 29.0524 15.9202 28.3438C15.4478 28.8635 14.8809 29.3831 14.2196 29.8083C13.2275 30.4224 12.141 30.942 10.8655 30.942C9.68454 30.942 8.64526 30.3279 8.12562 29.8083C7.2753 29.0524 6.85014 27.8714 6.70842 26.8321C6.28326 23.5253 8.31458 19.132 11.4797 17.2424C12.1883 16.8173 12.9913 16.5811 13.7472 16.5811C15.2589 16.5811 16.3926 17.6676 16.5343 18.9431C16.6761 20.1241 16.2037 21.1161 14.9282 21.7302C14.2668 22.0609 13.9361 22.0609 13.8417 21.8719C13.7944 21.7775 13.7944 21.5885 13.9361 21.494C15.1644 20.502 15.1644 19.6517 15.0227 18.4707C14.9282 17.7148 14.4558 17.2424 13.8889 17.2424C11.4324 17.2424 8.03114 22.5805 8.50354 26.4542C8.6925 27.9659 9.6373 29.7138 11.5269 29.7138C12.141 29.7138 12.8496 29.5248 13.4165 29.2414C14.4558 28.7217 15.0699 28.2966 15.6368 27.588C15.4951 25.7929 17.054 23.5253 19.3215 23.5253C20.3135 23.5253 21.1166 23.9033 21.2111 24.7063C21.3528 25.6984 20.5025 25.8873 20.1718 25.8873C19.8884 25.8873 19.4632 25.7929 19.416 25.5567C19.3687 25.2732 20.0301 25.4149 19.9356 24.8008C19.8884 24.4229 19.4632 24.2812 19.0853 24.2812C17.6681 24.2812 16.865 26.2653 17.0067 27.4935C17.054 28.0604 17.3847 28.6273 17.8571 28.6273C18.2822 28.6273 18.8963 28.0131 19.0853 27.1628C19.227 26.5487 19.7939 26.1708 20.2191 26.1708C20.4553 26.1708 20.597 26.2653 20.597 26.5015C20.597 26.5959 20.597 26.6904 20.597 26.7849C20.5497 27.0211 20.3608 27.9187 20.3608 28.0604C20.3608 28.2021 20.4553 28.4383 20.7387 28.4383C20.9749 28.4383 21.7307 28.0131 22.4866 27.3518C22.7228 26.1708 23.0062 24.7063 23.0062 24.6119C23.1007 24.1395 23.2897 23.6198 24.2345 23.6198C24.4234 23.6198 24.5651 23.7143 24.6124 23.9505C24.6124 24.045 24.6124 24.1395 24.6124 24.2339L24.3762 25.5094C25.2265 24.3757 26.5492 23.5253 27.3523 23.5253C27.683 23.5253 27.9664 23.7143 28.0137 24.045C28.0609 24.2339 27.9664 24.5646 27.8719 24.9425C27.5885 25.6984 27.2578 26.8794 27.0689 27.8714C27.0216 28.1076 27.1161 28.3911 27.494 28.3911C27.8247 28.3911 28.8167 28.0131 29.6198 26.9266C29.6198 26.7849 29.6198 26.6432 29.6198 26.4542C29.6198 25.6039 29.6671 24.9425 29.856 24.4229C29.9977 23.9033 30.6591 23.4309 31.0843 23.4309C31.3205 23.4309 31.4622 23.5726 31.4622 23.8088C31.4622 23.9033 31.4622 23.9977 31.4149 24.0922C31.1315 24.9898 30.9425 25.7929 30.9425 26.5959C30.9425 27.0683 31.037 27.7769 31.1315 28.1549C31.1315 28.2493 31.1787 28.2966 31.2732 28.2966C31.4149 28.2966 32.3597 27.399 33.0211 26.2653C32.407 25.8873 32.0763 25.1787 32.0763 24.3284C32.0763 22.9112 32.9266 22.1554 33.7769 22.1554C34.4383 22.1554 35.0052 22.6278 35.0052 23.5726C35.0052 24.1867 34.769 24.8481 34.4383 25.5094C34.4383 25.5094 34.58 25.5094 34.6273 25.5094C35.1469 25.5094 35.5248 25.2732 35.761 24.9898C35.8555 24.8953 35.95 24.8008 36.0445 24.7536C36.7058 23.9505 37.6979 23.3836 38.8316 23.3836C39.8237 23.3836 40.6267 23.7615 40.7212 24.5646C40.8629 25.5567 39.9654 25.7929 39.6819 25.7929C39.3985 25.7929 38.9261 25.6984 38.9261 25.4622C38.8789 25.226 39.5402 25.3205 39.493 24.7063C39.4457 24.3284 39.0206 24.1395 38.6427 24.1395C37.3199 24.1395 36.4224 25.8873 36.5641 27.3518C36.6113 27.9187 36.8948 28.4855 37.4144 28.4855C37.8396 28.4855 38.4537 27.8714 38.6899 27.0211C38.8316 26.4542 39.3985 26.0291 39.8237 26.0291C40.0126 26.0291 40.2016 26.1235 40.2016 26.3597C40.2016 26.5015 40.1543 26.7377 39.9654 27.6825C39.8709 28.0604 39.8709 28.4383 39.8709 28.6745C39.9654 29.2414 40.2016 29.6193 40.4378 29.8555C40.5323 29.95 40.5795 30.0445 40.5795 30.0917C40.5795 30.2334 40.485 30.3751 40.2961 30.3751C40.2488 30.3751 40.1543 30.3751 40.1071 30.3279C39.0678 29.9027 38.6427 29.1941 38.5482 28.58C38.1703 29.0997 37.6506 29.3359 37.0837 29.3359C36.1862 29.3359 35.2886 28.5328 35.1469 27.4935C35.0997 27.0683 35.1469 26.5959 35.2886 26.1708C34.9107 26.407 34.5328 26.5487 34.1549 26.5487C34.0131 26.5487 33.9187 26.5487 33.8242 26.5487C32.9266 27.8242 31.9818 28.7217 31.2732 29.1469C30.9898 29.2886 30.7063 29.3831 30.5174 29.3831C30.3757 29.3831 30.1867 29.3359 30.0922 29.1941C29.8088 29.0052 29.6671 28.5328 29.6198 27.9659ZM32.8321 23.7143C32.8321 24.2812 33.1156 24.8481 33.4463 25.226C33.588 24.8481 33.6825 24.4701 33.6825 24.0922C33.6825 23.3836 33.399 23.0529 33.2101 23.0529C32.9266 23.0529 32.8321 23.4309 32.8321 23.7143Z" fill="white"/>
</g>
<defs>
<clipPath id="clip0_310_141">
<rect width="47.24" height="47.24" fill="white"/>
</clipPath>
</defs>
</svg>
