<svg width="48" height="48" viewBox="0 0 48 48" fill="none" xmlns="http://www.w3.org/2000/svg">
<g clip-path="url(#clip0_310_144)">
<path d="M42.6442 35.1522C42.0108 35.4814 41.3575 35.771 40.6883 36.0194C38.5691 36.8082 36.325 37.2083 34.0638 37.2004C25.3358 37.2004 17.7333 31.2033 17.7333 23.4902C17.7446 22.4573 18.031 21.4462 18.5629 20.5608C19.0948 19.6754 19.853 18.9477 20.7595 18.4526C12.8618 18.7848 10.832 27.0146 10.832 31.8307C10.832 45.4856 23.3983 46.8511 26.1107 46.8511C27.5685 46.8511 29.7643 46.4267 31.093 46.0023L31.3328 45.9285C36.4172 44.1714 40.7517 40.7351 43.6222 36.1856C43.7057 36.0473 43.7415 35.8855 43.7242 35.725C43.7068 35.5644 43.6374 35.4141 43.5263 35.2967C43.4154 35.1795 43.269 35.1019 43.1096 35.0758C42.9503 35.0496 42.7868 35.0765 42.6442 35.1522Z" fill="url(#paint0_linear_310_144)"/>
<path opacity="0.35" d="M42.6442 35.1522C42.0108 35.4814 41.3575 35.771 40.6883 36.0194C38.5691 36.8082 36.325 37.2083 34.0638 37.2004C25.3358 37.2004 17.7333 31.2033 17.7333 23.4902C17.7446 22.4573 18.031 21.4462 18.5629 20.5608C19.0948 19.6754 19.853 18.9477 20.7595 18.4526C12.8618 18.7848 10.832 27.0146 10.832 31.8307C10.832 45.4856 23.3983 46.8511 26.1107 46.8511C27.5685 46.8511 29.7643 46.4267 31.093 46.0023L31.3328 45.9285C36.4172 44.1714 40.7517 40.7351 43.6222 36.1856C43.7057 36.0473 43.7415 35.8855 43.7242 35.725C43.7068 35.5644 43.6374 35.4141 43.5263 35.2967C43.4154 35.1795 43.269 35.1019 43.1096 35.0758C42.9503 35.0496 42.7868 35.0765 42.6442 35.1522Z" fill="url(#paint1_radial_310_144)"/>
<path d="M19.5044 44.5259C17.8619 43.5057 16.4383 42.1698 15.3157 40.5954C14.0339 38.8409 13.1515 36.8272 12.7306 34.6955C12.3097 32.5638 12.3604 30.3659 12.8791 28.2558C13.3978 26.1458 14.372 24.1748 15.7333 22.4812C17.0946 20.7877 18.81 19.4126 20.7592 18.4523C21.3497 18.1756 22.3277 17.6958 23.6378 17.7143C24.5597 17.7214 25.4675 17.9416 26.2902 18.3577C27.1128 18.774 27.8281 19.3747 28.3801 20.1131C29.1226 21.1115 29.5295 22.3195 29.5426 23.5637C29.5426 23.5268 34.0635 8.87549 14.7806 8.87549C6.67993 8.87549 0.0185581 16.5518 0.0185581 23.3054C-0.0136628 26.873 0.749053 30.4029 2.25131 33.6388C4.71154 38.8775 9.00963 43.0306 14.3297 45.3096C19.6497 47.5887 25.6214 47.8351 31.1111 46.002C29.1878 46.6094 27.1555 46.7921 25.1548 46.5372C23.154 46.2823 21.2325 45.596 19.5229 44.5259H19.5044Z" fill="url(#paint2_linear_310_144)"/>
<path opacity="0.41" d="M19.5044 44.5259C17.8619 43.5057 16.4383 42.1698 15.3157 40.5954C14.0339 38.8409 13.1515 36.8272 12.7306 34.6955C12.3097 32.5638 12.3604 30.3659 12.8791 28.2558C13.3978 26.1458 14.372 24.1748 15.7333 22.4812C17.0946 20.7877 18.81 19.4126 20.7592 18.4523C21.3497 18.1756 22.3277 17.6958 23.6378 17.7143C24.5597 17.7214 25.4675 17.9416 26.2902 18.3577C27.1128 18.774 27.8281 19.3747 28.3801 20.1131C29.1226 21.1115 29.5295 22.3195 29.5426 23.5637C29.5426 23.5268 34.0635 8.87549 14.7806 8.87549C6.67993 8.87549 0.0185581 16.5518 0.0185581 23.3054C-0.0136628 26.873 0.749053 30.4029 2.25131 33.6388C4.71154 38.8775 9.00963 43.0306 14.3297 45.3096C19.6497 47.5887 25.6214 47.8351 31.1111 46.002C29.1878 46.6094 27.1555 46.7921 25.1548 46.5372C23.154 46.2823 21.2325 45.596 19.5229 44.5259H19.5044Z" fill="url(#paint3_radial_310_144)"/>
<path d="M28.1217 27.4574C27.9556 27.6419 27.4943 27.9187 27.4943 28.4907C27.4943 28.9705 27.808 29.4503 28.38 29.8378C31.0188 31.6831 36.0194 31.4247 36.0378 31.4247C38.005 31.4234 39.9358 30.8945 41.629 29.8932C43.3336 28.8961 44.7481 27.4708 45.7321 25.7585C46.716 24.0462 47.2354 22.1066 47.2385 20.1317C47.2939 15.9983 45.7624 13.249 45.1534 12.031C41.223 4.39171 32.7902 1.15632e-07 23.6193 1.15632e-07C17.4122 -0.000613653 11.4543 2.44219 7.03426 6.80008C2.61422 11.158 0.0872872 17.0806 0 23.2872C0.0922628 16.5519 6.79054 11.1084 14.762 11.1084C15.4079 11.1084 19.0983 11.1638 22.5121 12.9537C24.9104 14.1454 26.8965 16.0287 28.214 18.3603C29.3396 20.3163 29.5425 22.8074 29.5425 23.8038C29.5425 24.8002 29.0443 26.258 28.1033 27.4759L28.1217 27.4574Z" fill="url(#paint4_radial_310_144)"/>
<path d="M28.1217 27.4574C27.9556 27.6419 27.4943 27.9187 27.4943 28.4907C27.4943 28.9705 27.808 29.4503 28.38 29.8378C31.0188 31.6831 36.0194 31.4247 36.0378 31.4247C38.005 31.4234 39.9358 30.8945 41.629 29.8932C43.3336 28.8961 44.7481 27.4708 45.7321 25.7585C46.716 24.0462 47.2354 22.1066 47.2385 20.1317C47.2939 15.9983 45.7624 13.249 45.1534 12.031C41.223 4.39171 32.7902 1.15632e-07 23.6193 1.15632e-07C17.4122 -0.000613653 11.4543 2.44219 7.03426 6.80008C2.61422 11.158 0.0872872 17.0806 0 23.2872C0.0922628 16.5519 6.79054 11.1084 14.762 11.1084C15.4079 11.1084 19.0983 11.1638 22.5121 12.9537C24.9104 14.1454 26.8965 16.0287 28.214 18.3603C29.3396 20.3163 29.5425 22.8074 29.5425 23.8038C29.5425 24.8002 29.0443 26.258 28.1033 27.4759L28.1217 27.4574Z" fill="url(#paint5_radial_310_144)"/>
</g>
<defs>
<linearGradient id="paint0_linear_310_144" x1="10.8321" y1="32.6607" x2="43.7515" y2="32.6607" gradientUnits="userSpaceOnUse">
<stop stop-color="#0C59A4"/>
<stop offset="1" stop-color="#114A8B"/>
</linearGradient>
<radialGradient id="paint1_radial_310_144" cx="0" cy="0" r="1" gradientUnits="userSpaceOnUse" gradientTransform="translate(29.0077 32.9097) scale(17.6037 16.7236)">
<stop offset="0.7" stop-opacity="0"/>
<stop offset="0.9" stop-opacity="0.5"/>
<stop offset="1"/>
</radialGradient>
<linearGradient id="paint2_linear_310_144" x1="28.1768" y1="18.3781" x2="7.63921" y2="40.761" gradientUnits="userSpaceOnUse">
<stop stop-color="#1B9DE2"/>
<stop offset="0.2" stop-color="#1595DF"/>
<stop offset="0.7" stop-color="#0680D7"/>
<stop offset="1" stop-color="#0078D4"/>
</linearGradient>
<radialGradient id="paint3_radial_310_144" cx="0" cy="0" r="1" gradientUnits="userSpaceOnUse" gradientTransform="translate(13.0197 36.7092) rotate(-81.384) scale(26.4583 21.3757)">
<stop offset="0.8" stop-opacity="0"/>
<stop offset="0.9" stop-opacity="0.5"/>
<stop offset="1"/>
</radialGradient>
<radialGradient id="paint4_radial_310_144" cx="0" cy="0" r="1" gradientUnits="userSpaceOnUse" gradientTransform="translate(4.77715 8.73054) rotate(92.2906) scale(37.3779 79.607)">
<stop stop-color="#35C1F1"/>
<stop offset="0.1" stop-color="#34C1ED"/>
<stop offset="0.2" stop-color="#2FC2DF"/>
<stop offset="0.3" stop-color="#2BC3D2"/>
<stop offset="0.7" stop-color="#36C752"/>
</radialGradient>
<radialGradient id="paint5_radial_310_144" cx="0" cy="0" r="1" gradientUnits="userSpaceOnUse" gradientTransform="translate(44.2973 14.2635) rotate(73.74) scale(17.9544 14.6005)">
<stop stop-color="#66EB6E"/>
<stop offset="1" stop-color="#66EB6E" stop-opacity="0"/>
</radialGradient>
<clipPath id="clip0_310_144">
<rect width="47.24" height="47.24" fill="white"/>
</clipPath>
</defs>
</svg>
