<svg width="48" height="48" viewBox="0 0 48 48" fill="none" xmlns="http://www.w3.org/2000/svg">
<g clip-path="url(#clip0_309_135)">
<path d="M15.7464 47.2398C20.0925 47.2398 23.6197 43.7126 23.6197 39.3665V31.4932H15.7464C11.4003 31.4932 7.87305 35.0204 7.87305 39.3665C7.87305 43.7126 11.4003 47.2398 15.7464 47.2398Z" fill="#0ACF83"/>
<path d="M7.87305 23.6199C7.87305 19.2738 11.4003 15.7466 15.7464 15.7466H23.6197V31.4932H15.7464C11.4003 31.4932 7.87305 27.966 7.87305 23.6199Z" fill="#A259FF"/>
<path d="M7.87305 7.87333C7.87305 3.52725 11.4003 0 15.7464 0H23.6197V15.7467H15.7464C11.4003 15.7467 7.87305 12.2194 7.87305 7.87333Z" fill="#F24E1E"/>
<path d="M23.6201 0H31.4935C35.8395 0 39.3668 3.52725 39.3668 7.87333C39.3668 12.2194 35.8395 15.7467 31.4935 15.7467H23.6201V0Z" fill="#FF7262"/>
<path d="M39.3668 23.6199C39.3668 27.966 35.8395 31.4932 31.4935 31.4932C27.1474 31.4932 23.6201 27.966 23.6201 23.6199C23.6201 19.2738 27.1474 15.7466 31.4935 15.7466C35.8395 15.7466 39.3668 19.2738 39.3668 23.6199Z" fill="#1ABCFE"/>
</g>
<defs>
<clipPath id="clip0_309_135">
<rect width="47.24" height="47.24" fill="white"/>
</clipPath>
</defs>
</svg>
