<svg width="64" height="64" viewBox="0 0 64 64" fill="none" xmlns="http://www.w3.org/2000/svg">
<path fill-rule="evenodd" clip-rule="evenodd" d="M42.4801 40.98H21.5101C21.5101 40.98 10.0801 52.28 11.8101 55.04C12.5601 56.24 13.8701 56.97 15.2901 56.97H48.7001C50.1101 56.97 51.4301 56.24 52.1801 55.04C53.9101 52.28 42.4801 40.98 42.4801 40.98Z" fill="#1D83F2"/>
<path fill-rule="evenodd" clip-rule="evenodd" d="M38.8199 7.03003C40.1599 7.03003 41.3999 7.75003 42.0799 8.90003C45.3699 14.48 55.1599 31.12 59.1999 37.98C60.2899 39.83 60.2599 42.13 59.1199 43.94C57.0899 47.18 42.6599 41.46 42.6599 41.46L31.8799 23.11L38.8199 7.03003Z" fill="#F9B406"/>
<path fill-rule="evenodd" clip-rule="evenodd" d="M25.1797 7.03003C23.8397 7.03003 22.5997 7.75003 21.9197 8.90003C18.6297 14.48 8.83969 31.12 4.79969 37.98C3.70969 39.83 3.73969 42.13 4.87969 43.94C6.90969 47.18 21.3397 41.46 21.3397 41.46L32.2197 22.95L25.1797 7.03003Z" fill="#0BA84A"/>
<path fill-rule="evenodd" clip-rule="evenodd" d="M25.1804 7.03003H38.8304C39.6704 7.03003 40.4704 7.32003 41.1204 7.81003L32.0104 23.32L22.9004 7.81003C23.5504 7.32003 24.3404 7.04003 25.1804 7.03003Z" fill="#097A2B"/>
<path fill-rule="evenodd" clip-rule="evenodd" d="M59.9996 40.98C59.9796 42.01 59.6897 43.03 59.1297 43.94C57.0997 47.18 53.9096 52.29 52.1896 55.05C51.9396 55.45 51.6196 55.8 51.2596 56.09L42.3896 40.99H60.0096L59.9996 40.98Z" fill="#EF3930"/>
<path fill-rule="evenodd" clip-rule="evenodd" d="M4 40.98C4.02 42.01 4.31 43.03 4.87 43.94C6.9 47.18 10.09 52.29 11.81 55.05C12.06 55.45 12.38 55.8 12.74 56.09L21.61 40.99H4V40.98Z" fill="#0267CC"/>
</svg>
