<svg width="48" height="48" viewBox="0 0 48 48" fill="none" xmlns="http://www.w3.org/2000/svg">
<g clip-path="url(#clip0_307_97)">
<path d="M26.5723 2.95215C21.0959 2.96798 15.8484 5.15047 11.976 9.02286C8.1036 12.8952 5.9211 18.1428 5.90527 23.6191L32.0883 29.1351L26.5723 2.95215Z" fill="#ED6C47"/>
<path d="M26.5713 2.95215C32.0476 2.96798 37.2952 5.15047 41.1676 9.02286C45.04 12.8952 47.2225 18.1428 47.2383 23.6191L36.9043 30.6421L26.5713 23.6191V2.95215Z" fill="#FF8F6B"/>
<path d="M26.5723 44.2861C32.0485 44.27 37.2957 42.0874 41.1679 38.2151C45.0401 34.3427 47.2224 29.0953 47.2383 23.6191H5.90527C5.9211 29.0955 8.1036 34.343 11.976 38.2154C15.8484 42.0878 21.0959 44.2703 26.5723 44.2861Z" fill="#D35230"/>
<path opacity="0.1" d="M24.6047 10.333H10.7847C7.4105 14.3089 5.67489 19.4193 5.92986 24.6278C6.18483 29.8362 8.4113 34.7527 12.1577 38.38H24.6047C25.1263 38.3787 25.6262 38.171 25.9952 37.8022C26.3641 37.4334 26.5721 36.9336 26.5737 36.412V12.301C26.5721 11.7794 26.3641 11.2796 25.9952 10.9108C25.6262 10.5421 25.1263 10.3343 24.6047 10.333Z" fill="black"/>
<path opacity="0.2" d="M23.1265 11.8091H9.65546C6.61279 16.1266 5.35143 21.4508 6.13367 26.6744C6.9159 31.8981 9.68154 36.6192 13.8555 39.8561H23.1285C23.6496 39.8542 24.1488 39.6464 24.5173 39.2779C24.8858 38.9094 25.0936 38.4102 25.0955 37.8891V13.7771C25.0939 13.2555 24.8859 12.7556 24.5169 12.3869C24.148 12.0181 23.6481 11.8104 23.1265 11.8091Z" fill="black"/>
<path opacity="0.2" d="M23.1257 11.8091H9.65365C7.03076 15.5254 5.71838 20.0086 5.92313 24.5527C6.12789 29.0968 7.83815 33.4437 10.7847 36.9091H23.1267C23.6481 36.9075 24.1478 36.6996 24.5165 36.3309C24.8852 35.9622 25.0931 35.4625 25.0947 34.9411V13.7771C25.0931 13.2555 24.8851 12.7556 24.5161 12.3869C24.1472 12.0181 23.6473 11.8104 23.1257 11.8091Z" fill="black"/>
<path opacity="0.2" d="M21.6499 11.8091H9.64989C7.02754 15.5259 5.71585 20.0092 5.92133 24.5533C6.12681 29.0974 7.83779 33.4442 10.7849 36.9091H21.6509C22.1723 36.9075 22.672 36.6996 23.0407 36.3309C23.4095 35.9622 23.6173 35.4625 23.6189 34.9411V13.7771C23.6173 13.2555 23.4093 12.7556 23.0404 12.3869C22.6714 12.0181 22.1715 11.8104 21.6499 11.8091Z" fill="black"/>
<path d="M1.968 11.8091H21.651C22.1729 11.8091 22.6735 12.0164 23.0426 12.3855C23.4117 12.7546 23.619 13.2551 23.619 13.7771V33.4601C23.619 33.982 23.4117 34.4826 23.0426 34.8517C22.6735 35.2207 22.1729 35.4281 21.651 35.4281H1.968C1.44605 35.4281 0.945485 35.2207 0.576414 34.8517C0.207342 34.4826 0 33.982 0 33.4601V13.7771C0 13.2551 0.207342 12.7546 0.576414 12.3855C0.945485 12.0164 1.44605 11.8091 1.968 11.8091Z" fill="#C43E1C"/>
<path d="M11.8053 16.2332C13.2588 16.1352 14.7 16.5562 15.8723 17.4212C16.353 17.8502 16.7299 18.3829 16.9743 18.9791C17.2188 19.5752 17.3244 20.2192 17.2833 20.8622C17.2988 21.6972 17.0542 22.5164 16.5833 23.2062C16.1069 23.9699 15.42 24.5796 14.6053 24.9622C13.672 25.3955 12.652 25.6097 11.6233 25.5882H8.80027V31.0002H5.90527V16.2332H11.8053ZM8.79827 23.1502H11.2883C12.077 23.2077 12.8595 22.9748 13.4883 22.4952C13.7384 22.3343 13.9399 22.1081 14.071 21.8412C14.2021 21.5742 14.2579 21.2765 14.2323 20.9802C14.2323 19.3475 13.2813 18.5312 11.3793 18.5312H8.79827V23.1502Z" fill="#F9F7F7"/>
</g>
<defs>
<clipPath id="clip0_307_97">
<rect width="47.238" height="47.238" fill="white"/>
</clipPath>
</defs>
</svg>
