<svg width="667" height="667" viewBox="0 0 667 667" fill="none" xmlns="http://www.w3.org/2000/svg">
<path fill-rule="evenodd" clip-rule="evenodd" d="M394.505 158.361L393.9 525.427L125.971 488.312C132.094 482.151 139.88 480.602 148.724 477.087C156.358 474.063 162.33 471.758 169.851 468.772C184.478 462.989 199.634 455.733 213.316 451.953L213.353 201.599L394.505 158.361ZM120.453 485.062C120.453 485.062 122.796 487.783 125.102 489.295C127.672 490.958 128.39 491.033 131.263 492.243C135.571 494.019 140.069 495.455 144.68 497.08C153.94 500.255 161.763 503.392 171.098 506.907L329.838 565.565C400.288 590.283 379.992 594.441 438.65 576.828L522.819 552.186C537.975 547.688 544.589 548.822 546.214 541.679V124.95C543.153 118.563 544.703 120.642 535.216 117.883L492.961 105.713C474.442 100.459 455.922 94.9411 436.873 89.2718C416.502 83.2246 399.948 74.3428 381.05 82.0908L120.453 179.602V485.062Z" fill="#EB3B00"/>
</svg>
