<svg width="47" height="47" viewBox="0 0 47 47" fill="none" xmlns="http://www.w3.org/2000/svg">
<g clip-path="url(#clip0_307_85)">
<path d="M44.9774 2.93311H13.6884C13.4317 2.93311 13.1774 2.98367 12.9403 3.08192C12.7031 3.18017 12.4875 3.32417 12.306 3.50571C12.1245 3.68725 11.9805 3.90277 11.8822 4.13996C11.784 4.37715 11.7334 4.63137 11.7334 4.88811V13.1991L29.3334 18.3331L46.9334 13.2001V4.88811C46.9334 4.63129 46.8828 4.37699 46.7845 4.13973C46.6862 3.90247 46.5421 3.68691 46.3604 3.50536C46.1788 3.32381 45.9632 3.17982 45.7259 3.08163C45.4885 2.98344 45.2342 2.93297 44.9774 2.93311Z" fill="#41A5EE"/>
<path d="M46.9334 13.1992H11.7334V23.4652L29.3334 28.5992L46.9334 23.4662V13.1992Z" fill="#2B7CD3"/>
<path d="M46.9334 23.4658H11.7334V33.7318L29.3334 38.8658L46.9334 33.7328V23.4658Z" fill="#185ABD"/>
<path d="M46.9334 33.7319H11.7334V42.0429C11.7334 42.2997 11.784 42.5539 11.8822 42.7911C11.9805 43.0283 12.1245 43.2438 12.306 43.4253C12.4875 43.6069 12.7031 43.7509 12.9403 43.8491C13.1774 43.9474 13.4317 43.9979 13.6884 43.9979H44.9774C45.2342 43.9981 45.4885 43.9476 45.7259 43.8494C45.9632 43.7512 46.1788 43.6072 46.3604 43.4257C46.5421 43.2441 46.6862 43.0286 46.7845 42.7913C46.8828 42.5541 46.9334 42.2998 46.9334 42.0429V33.7319Z" fill="#103F91"/>
<path opacity="0.1" d="M24.4444 10.2661H11.7334V38.1321H24.4444C24.9624 38.1305 25.4588 37.924 25.825 37.5578C26.1913 37.1915 26.3978 36.6951 26.3994 36.1771V12.2211C26.3978 11.7031 26.1913 11.2068 25.825 10.8405C25.4588 10.4742 24.9624 10.2677 24.4444 10.2661Z" fill="black"/>
<path opacity="0.2" d="M22.9774 11.7329H11.7334V39.5989H22.9774C23.4956 39.5976 23.9922 39.3912 24.3587 39.0249C24.7252 38.6586 24.9318 38.1621 24.9334 37.6439V13.6879C24.9318 13.1697 24.7252 12.6732 24.3587 12.3069C23.9922 11.9406 23.4956 11.7342 22.9774 11.7329Z" fill="black"/>
<path opacity="0.2" d="M22.9774 11.7329H11.7334V36.6649H22.9774C23.4956 36.6636 23.9922 36.4572 24.3587 36.0909C24.7252 35.7246 24.9318 35.2281 24.9334 34.7099V13.6879C24.9318 13.1697 24.7252 12.6732 24.3587 12.3069C23.9922 11.9406 23.4956 11.7342 22.9774 11.7329Z" fill="black"/>
<path opacity="0.2" d="M21.5114 11.7329H11.7334V36.6649H21.5114C22.0294 36.6633 22.5258 36.4568 22.892 36.0906C23.2583 35.7243 23.4648 35.2279 23.4664 34.7099V13.6879C23.4648 13.1699 23.2583 12.6736 22.892 12.3073C22.5258 11.941 22.0294 11.7345 21.5114 11.7329Z" fill="black"/>
<path d="M1.955 11.7329H21.511C22.0295 11.7329 22.5268 11.9389 22.8934 12.3055C23.26 12.6721 23.466 13.1694 23.466 13.6879V33.2439C23.466 33.7624 23.26 34.2597 22.8934 34.6263C22.5268 34.9929 22.0295 35.1989 21.511 35.1989H1.955C1.4365 35.1989 0.93924 34.9929 0.572606 34.6263C0.205973 34.2597 0 33.7624 0 33.2439V13.6879C0 13.4312 0.0505676 13.177 0.148816 12.9398C0.247063 12.7026 0.391068 12.4871 0.572606 12.3055C0.754145 12.124 0.969662 11.98 1.20685 11.8817C1.44405 11.7835 1.69827 11.7329 1.955 11.7329Z" fill="#185ABD"/>
<path d="M17.5258 30.7988H14.8868L11.8068 20.6788L8.57984 30.7988H5.93984L3.00684 16.1328H5.64684L7.69984 26.3988L10.7798 16.4258H12.9798L15.9128 26.3988L17.9658 16.1328H20.4568L17.5258 30.7988Z" fill="white"/>
</g>
<defs>
<clipPath id="clip0_307_85">
<rect width="46.931" height="46.931" fill="white"/>
</clipPath>
</defs>
</svg>
