<svg width="50" height="50" viewBox="0 0 50 50" fill="none" xmlns="http://www.w3.org/2000/svg">
<path d="M4.68769 17.1875H6.25019V18.75H4.68769V17.1875ZM7.81269 17.1875H9.37519V18.75H7.81269V17.1875ZM4.68769 20.3125H6.25019V21.875H4.68769V20.3125ZM7.81269 20.3125H9.37519V21.875H7.81269V20.3125ZM4.68769 10.9375H6.25019V12.5H4.68769V10.9375ZM7.81269 10.9375H9.37519V12.5H7.81269V10.9375ZM4.68769 14.0625H6.25019V15.625H4.68769V14.0625ZM7.81269 14.0625H9.37519V15.625H7.81269V14.0625ZM4.68769 7.8125H6.25019V9.375H4.68769V7.8125ZM7.81269 7.8125H9.37519V9.375H7.81269V7.8125ZM4.68769 4.6875H6.25019V6.25H4.68769V4.6875ZM7.81269 4.6875H9.37519V6.25H7.81269V4.6875ZM46.0994 2.34375H35.151C34.5313 2.34519 33.9373 2.59201 33.4991 3.03021C33.0609 3.46841 32.8141 4.06232 32.8127 4.68203V28.1305C32.8141 28.7502 33.0609 29.3441 33.4991 29.7823C33.9373 30.2205 34.5313 30.4673 35.151 30.4688H39.8439V32.8125H25.0002C24.793 32.8125 24.5943 32.8948 24.4478 33.0413C24.3012 33.1878 24.2189 33.3865 24.2189 33.5938V37.5H5.46894C5.3049 37.5 5.14502 37.5516 5.01195 37.6475C4.87887 37.7434 4.77937 37.8787 4.72753 38.0344L1.60253 47.4094C1.56341 47.5268 1.55277 47.6519 1.57146 47.7743C1.59016 47.8966 1.63767 48.0128 1.71008 48.1132C1.78248 48.2136 1.87771 48.2954 1.98792 48.3518C2.09812 48.4081 2.22015 48.4375 2.34394 48.4375H47.6564C47.7802 48.4375 47.9023 48.4081 48.0125 48.3518C48.1227 48.2954 48.2179 48.2136 48.2903 48.1132C48.3627 48.0128 48.4102 47.8966 48.4289 47.7743C48.4476 47.6519 48.437 47.5268 48.3978 47.4094L45.2728 38.0344C45.221 37.8787 45.1215 37.7434 44.9884 37.6475C44.8554 37.5516 44.6955 37.5 44.5314 37.5H25.7814V34.375H40.6252C40.8324 34.375 41.0311 34.2927 41.1776 34.1462C41.3241 33.9997 41.4064 33.801 41.4064 33.5938V30.4688H46.0994C46.7191 30.4673 47.313 30.2205 47.7512 29.7823C48.1894 29.3441 48.4362 28.7502 48.4377 28.1305V4.68203C48.4362 4.06232 48.1894 3.46841 47.7512 3.03021C47.313 2.59201 46.7191 2.34519 46.0994 2.34375ZM46.5728 46.875H3.42753L6.03222 39.0625H43.9682L46.5728 46.875ZM46.8752 28.1305C46.875 28.3362 46.7932 28.5334 46.6477 28.6788C46.5023 28.8242 46.3051 28.906 46.0994 28.9062H35.151C34.9453 28.906 34.7481 28.8242 34.6026 28.6788C34.4572 28.5334 34.3754 28.3362 34.3752 28.1305V4.68203C34.3754 4.47634 34.4572 4.27914 34.6026 4.1337C34.7481 3.98826 34.9453 3.90646 35.151 3.90625H46.0994C46.3051 3.90646 46.5023 3.98826 46.6477 4.1337C46.7932 4.27914 46.875 4.47634 46.8752 4.68203V28.1305Z" fill="#F39F5F"/>
<path d="M3.79297 25H12.1914L13.2922 27.5313L7.53281 29.7391C7.36224 29.8043 7.21991 29.9273 7.13056 30.0865C7.04121 30.2458 7.01049 30.4314 7.04373 30.611C7.07697 30.7905 7.17208 30.9528 7.31252 31.0695C7.45296 31.1863 7.62987 31.2501 7.8125 31.25H26.5625C26.7474 31.2498 26.9262 31.184 27.0671 31.0644C27.2081 30.9448 27.302 30.779 27.3323 30.5967C27.3626 30.4143 27.3272 30.2271 27.2324 30.0684C27.1377 29.9096 26.9897 29.7896 26.8148 29.7297L20.2797 27.5L21.368 25H29.0195C29.6108 24.9992 30.1777 24.7639 30.5958 24.3458C31.0139 23.9277 31.2492 23.3608 31.25 22.7695V3.79297C31.2492 3.20167 31.0139 2.63482 30.5958 2.2167C30.1777 1.79859 29.6108 1.56333 29.0195 1.5625H3.79297C3.20167 1.56333 2.63482 1.79859 2.2167 2.2167C1.79859 2.63482 1.56333 3.20167 1.5625 3.79297V22.7695C1.56333 23.3608 1.79859 23.9277 2.2167 24.3458C2.63482 24.7639 3.20167 24.9992 3.79297 25ZM18.5109 28.2813C18.5546 28.3799 18.6182 28.4685 18.6978 28.5414C18.7774 28.6143 18.8713 28.6699 18.9734 28.7047L21.8477 29.6875H12.0312L14.6094 28.6977C14.7078 28.6599 14.7976 28.6026 14.8733 28.5292C14.949 28.4558 15.0091 28.3678 15.0499 28.2706C15.0907 28.1733 15.1114 28.0689 15.1107 27.9634C15.1101 27.858 15.0881 27.7538 15.0461 27.657L13.8953 25H19.6641L18.5094 27.6563C18.4666 27.7549 18.4447 27.8614 18.4449 27.9689C18.4452 28.0765 18.4677 28.1828 18.5109 28.2813ZM3.125 3.79297C3.12541 3.61594 3.19592 3.44628 3.3211 3.3211C3.44628 3.19592 3.61594 3.12541 3.79297 3.125H29.0195C29.1966 3.12541 29.3662 3.19592 29.4914 3.3211C29.6166 3.44628 29.6871 3.61594 29.6875 3.79297V22.7695C29.6871 22.9466 29.6166 23.1162 29.4914 23.2414C29.3662 23.3666 29.1966 23.4371 29.0195 23.4375H3.79297C3.61594 23.4371 3.44628 23.3666 3.3211 23.2414C3.19592 23.1162 3.12541 22.9466 3.125 22.7695V3.79297ZM35.9375 5.46875H45.3125V7.03125H35.9375V5.46875ZM35.9375 8.59375H45.3125V10.1562H35.9375V8.59375ZM40.625 22.6562C40.1615 22.6562 39.7083 22.7937 39.3229 23.0512C38.9375 23.3088 38.6371 23.6748 38.4597 24.1031C38.2823 24.5314 38.2359 25.0026 38.3263 25.4572C38.4167 25.9119 38.6399 26.3295 38.9677 26.6573C39.2955 26.9851 39.7131 27.2083 40.1678 27.2987C40.6224 27.3891 41.0936 27.3427 41.5219 27.1653C41.9502 26.9879 42.3162 26.6875 42.5738 26.3021C42.8313 25.9167 42.9688 25.4635 42.9688 25C42.9688 24.3784 42.7218 23.7823 42.2823 23.3427C41.8427 22.9032 41.2466 22.6563 40.625 22.6562ZM40.625 25.7812C40.4705 25.7812 40.3194 25.7354 40.191 25.6496C40.0625 25.5637 39.9624 25.4417 39.9032 25.299C39.8441 25.1562 39.8286 24.9991 39.8588 24.8476C39.8889 24.696 39.9633 24.5568 40.0726 24.4476C40.1818 24.3383 40.321 24.2639 40.4726 24.2338C40.6241 24.2036 40.7812 24.2191 40.924 24.2782C41.0667 24.3374 41.1887 24.4375 41.2746 24.566C41.3604 24.6944 41.4062 24.8455 41.4062 25C41.4062 25.2072 41.3239 25.4059 41.1774 25.5524C41.0309 25.6989 40.8322 25.7812 40.625 25.7812ZM40.625 16.4062C40.1615 16.4062 39.7083 16.5437 39.3229 16.8012C38.9375 17.0588 38.6371 17.4248 38.4597 17.8531C38.2823 18.2814 38.2359 18.7526 38.3263 19.2072C38.4167 19.6619 38.6399 20.0795 38.9677 20.4073C39.2955 20.7351 39.7131 20.9583 40.1678 21.0487C40.6224 21.1391 41.0936 21.0927 41.5219 20.9153C41.9502 20.7379 42.3162 20.4375 42.5738 20.0521C42.8313 19.6667 42.9688 19.2135 42.9688 18.75C42.9688 18.1284 42.7218 17.5323 42.2823 17.0927C41.8427 16.6532 41.2466 16.4063 40.625 16.4062ZM40.625 19.5312C40.4705 19.5312 40.3194 19.4854 40.191 19.3996C40.0625 19.3137 39.9624 19.1917 39.9032 19.049C39.8441 18.9062 39.8286 18.7491 39.8588 18.5976C39.8889 18.446 39.9633 18.3068 40.0726 18.1976C40.1818 18.0883 40.321 18.0139 40.4726 17.9838C40.6241 17.9536 40.7812 17.9691 40.924 18.0282C41.0667 18.0874 41.1887 18.1875 41.2746 18.316C41.3604 18.4444 41.4062 18.5955 41.4062 18.75C41.4062 18.9572 41.3239 19.1559 41.1774 19.3024C41.0309 19.4489 40.8322 19.5312 40.625 19.5312ZM36.7188 11.7188H38.2812V13.2812H36.7188V11.7188ZM39.8438 13.2812H41.4062V14.8438H39.8438V13.2812ZM42.9688 11.7188H44.5312V13.2812H42.9688V11.7188ZM7.03125 40.625H8.59375V42.1875H7.03125V40.625ZM6.25 43.75H9.375V45.3125H6.25V43.75ZM40.625 43.75H43.75V45.3125H40.625V43.75ZM21.875 43.75H28.125V45.3125H21.875V43.75ZM10.1562 40.625H11.7188V42.1875H10.1562V40.625ZM13.2812 40.625H14.8438V42.1875H13.2812V40.625ZM16.4062 40.625H17.9688V42.1875H16.4062V40.625ZM13.2812 43.75H14.8438V45.3125H13.2812V43.75ZM16.4062 43.75H17.9688V45.3125H16.4062V43.75ZM32.0312 43.75H33.5938V45.3125H32.0312V43.75ZM35.1562 43.75H36.7188V45.3125H35.1562V43.75ZM19.5312 40.625H21.0938V42.1875H19.5312V40.625ZM22.6562 40.625H24.2188V42.1875H22.6562V40.625ZM25.7812 40.625H27.3438V42.1875H25.7812V40.625ZM28.9062 40.625H30.4688V42.1875H28.9062V40.625ZM32.0312 40.625H33.5938V42.1875H32.0312V40.625ZM35.1562 40.625H36.7188V42.1875H35.1562V40.625ZM38.2812 40.625H39.8438V42.1875H38.2812V40.625ZM41.4062 40.625H42.9688V42.1875H41.4062V40.625Z" fill="#F39F5F"/>
</svg>
